# xmcd CD database file
#
# Track frame offsets:
#	150
#	31725
#	74282
#	88285
#	107870
#	129832
#
# Disc length: 2435 seconds
#
# Revision: 0
# Processed by: cddbd v1.5.2PL0 Copyright (c) Steve Scherf et al.
# Submitted via: CDex 1.51
#
DISCID=49098106
DTITLE=Eric Watson - Conspiracy
DYEAR=1982
DGENRE=Jazz
TTITLE0=Second Segree Burn
TTITLE1=Hymn For Her
TTITLE2=Dance
TTITLE3=Conspiracy
TTITLE4=Summer Cloud
TTITLE5=No Beards In Albania
EXTD=YEAR: 1982
EXTT0=
EXTT1=
EXTT2=
EXTT3=
EXTT4=
EXTT5=
PLAYORDER=
